<svg width="30" height="46" viewBox="0 0 46 46" fill="none" xmlns="http://www.w3.org/2000/svg">
<mask id="mask0_1_121" style="mask-type:alpha" maskUnits="userSpaceOnUse" x="0" y="0" width="46" height="46">
<rect width="46" height="46" fill="#D9D9D9"/>
</mask>
<g mask="url(#mask0_1_121)">
<path d="M36.284 38.3333C33.0527 38.3333 29.7403 37.5242 26.3468 35.9061C22.9533 34.288 19.8006 32.0169 16.8888 29.0928C13.9769 26.1686 11.7119 23.0159 10.0939 19.6347C8.47574 16.2535 7.66669 12.9473 7.66669 9.71597C7.66669 9.13043 7.85835 8.6425 8.24169 8.25217C8.62502 7.86181 9.10419 7.66663 9.67919 7.66663H14.4192C14.9402 7.66663 15.3948 7.83064 15.7831 8.15868C16.1713 8.48672 16.4342 8.90752 16.5718 9.42109L17.5228 13.9916C17.6112 14.5273 17.5953 14.9954 17.4748 15.396C17.3544 15.7965 17.1419 16.1245 16.8372 16.3801L12.6316 20.3019C13.4179 21.7296 14.2872 23.0559 15.2394 24.2808C16.1916 25.5058 17.207 26.6662 18.2857 27.7622C19.3989 28.8753 20.5968 29.9104 21.8795 30.8675C23.1622 31.8246 24.5702 32.7283 26.1035 33.5785L30.2023 29.406C30.5143 29.0694 30.8651 28.8476 31.2546 28.7408C31.644 28.6338 32.0747 28.6123 32.5465 28.6762L36.5789 29.5019C37.0998 29.6296 37.5225 29.892 37.8468 30.2888C38.1712 30.6856 38.3334 31.1409 38.3334 31.6544V36.3208C38.3334 36.8958 38.1382 37.375 37.7478 37.7583C37.3575 38.1416 36.8695 38.3333 36.284 38.3333ZM11.7322 18.5032L15.4107 15.1195C15.5336 15.0212 15.6135 14.8861 15.6503 14.7141C15.6872 14.542 15.6811 14.3823 15.6319 14.2349L14.7804 10.1731C14.7313 9.97646 14.6453 9.82903 14.5225 9.73073C14.3996 9.63244 14.2399 9.58329 14.0433 9.58329H10.1104C9.96301 9.58329 9.84016 9.63244 9.74186 9.73073C9.64357 9.82903 9.59442 9.95188 9.59442 10.0993C9.63129 11.409 9.83647 12.7765 10.21 14.2017C10.5835 15.6269 11.0909 17.0608 11.7322 18.5032ZM27.9281 34.4778C29.2231 35.1192 30.6034 35.5934 32.0692 35.9006C33.5349 36.2078 34.8121 36.3724 35.9007 36.3945C36.0481 36.3945 36.171 36.3454 36.2692 36.2471C36.3675 36.1488 36.4167 36.0259 36.4167 35.8785V32.0304C36.4167 31.8338 36.3675 31.6741 36.2692 31.5513C36.171 31.4284 36.0235 31.3424 35.8269 31.2932L32.2811 30.5671C32.1337 30.518 32.0047 30.5118 31.8941 30.5487C31.7835 30.5855 31.6668 30.6654 31.5439 30.7883L27.9281 34.4778Z" fill="#138ED1"/>
</g>
</svg>
