<svg width="30" height="46" viewBox="0 0 46 46" fill="none" xmlns="http://www.w3.org/2000/svg">
<mask id="mask0_1_122" style="mask-type:alpha" maskUnits="userSpaceOnUse" x="0" y="0" width="46" height="46">
<rect width="46" height="46" fill="#D9D9D9"/>
</mask>
<g mask="url(#mask0_1_122)">
<path d="M23 41.2083C19.9087 41.2083 17.379 40.7654 15.4107 39.8795C13.4424 38.9937 12.4583 37.8394 12.4583 36.4166C12.4583 35.6671 12.7802 34.9816 13.424 34.3599C14.0678 33.7382 14.9586 33.2 16.0963 32.7454L16.6455 34.581C15.9796 34.8636 15.4599 35.1616 15.0864 35.4749C14.7129 35.7882 14.4831 36.1021 14.3971 36.4166C14.6158 37.2717 15.5434 37.9647 17.18 38.4955C18.8165 39.0262 20.7565 39.2916 23 39.2916C25.2189 39.2916 27.1546 39.0262 28.8071 38.4955C30.4596 37.9647 31.3952 37.2717 31.6139 36.4166C31.5279 36.1021 31.2982 35.7943 30.9246 35.4933C30.5511 35.1923 30.0314 34.8882 29.3655 34.581L29.9516 32.7454C31.0893 33.2 31.9721 33.7382 32.5999 34.3599C33.2277 34.9816 33.5416 35.6671 33.5416 36.4166C33.5416 37.8394 32.5575 38.9937 30.5893 39.8795C28.621 40.7654 26.0912 41.2083 23 41.2083ZM23 31.3632C23.575 30.2354 24.2556 29.0848 25.0419 27.9114C25.8283 26.7381 26.6355 25.6169 27.4636 24.5481C28.6947 22.941 29.68 21.4795 30.4197 20.1637C31.1593 18.8478 31.5291 17.2057 31.5291 15.2375C31.5291 12.8834 30.6961 10.8734 29.0301 9.20734C27.3641 7.54131 25.354 6.70829 23 6.70829C20.6459 6.70829 18.6359 7.54131 16.9699 9.20734C15.3038 10.8734 14.4708 12.8834 14.4708 15.2375C14.4708 17.2057 14.8468 18.8478 15.5987 20.1637C16.3506 21.4795 17.3298 22.941 18.5364 24.5481C19.3644 25.6169 20.1717 26.7381 20.958 27.9114C21.7443 29.0848 22.425 30.2354 23 31.3632ZM23 34.2788C22.7223 34.2788 22.4643 34.175 22.2259 33.9674C21.9876 33.7597 21.8045 33.5048 21.6768 33.2025C20.8437 31.1802 19.9051 29.4823 18.8607 28.1086C17.8164 26.735 16.8163 25.4192 15.8604 24.161C14.9365 22.9029 14.1544 21.5969 13.5143 20.2429C12.8742 18.889 12.5541 17.2205 12.5541 15.2375C12.5541 12.3133 13.5641 9.84129 15.584 7.82145C17.6038 5.80157 20.0758 4.79163 23 4.79163C25.9241 4.79163 28.3961 5.80157 30.416 7.82145C32.4359 9.84129 33.4458 12.3133 33.4458 15.2375C33.4458 17.2205 33.1337 18.889 32.5096 20.2429C31.8855 21.5969 31.0954 22.9029 30.1396 24.161C29.2156 25.4192 28.2235 26.735 27.1632 28.1086C26.1029 29.4823 25.1562 31.1802 24.3232 33.2025C24.1954 33.5048 24.0124 33.7597 23.774 33.9674C23.5357 34.175 23.2776 34.2788 23 34.2788ZM23 18.1678C23.8232 18.1678 24.5173 17.8852 25.0825 17.32C25.6477 16.7548 25.9303 16.0606 25.9303 15.2375C25.9303 14.4143 25.6477 13.7201 25.0825 13.1549C24.5173 12.5897 23.8232 12.3072 23 12.3072C22.1768 12.3072 21.4826 12.5897 20.9174 13.1549C20.3523 13.7201 20.0697 14.4143 20.0697 15.2375C20.0697 16.0606 20.3523 16.7548 20.9174 17.32C21.4826 17.8852 22.1768 18.1678 23 18.1678Z" fill="#138ED1"/>
</g>
</svg>
