<svg width="1079" height="118" viewBox="0 0 1079 118" fill="none" xmlns="http://www.w3.org/2000/svg">
<rect x="0.5" y="33.5" width="137" height="71" rx="15.5" fill="#138ED1" stroke="#138ED1"/>
<g filter="url(#filter0_d_1_226)">
<path d="M67.8558 63.354C66.6718 63.354 65.5118 63.186 64.3758 62.85C63.2558 62.498 62.3118 62.018 61.5438 61.41L62.8638 58.986C63.4718 59.482 64.2078 59.882 65.0718 60.186C65.9518 60.49 66.8638 60.642 67.8078 60.642C68.9118 60.642 69.7758 60.41 70.3998 59.946C71.0398 59.482 71.3598 58.858 71.3598 58.074C71.3598 57.546 71.2238 57.082 70.9518 56.682C70.6958 56.282 70.2318 55.978 69.5598 55.77C68.9038 55.562 67.9998 55.458 66.8478 55.458H62.7918L63.6558 46.314H73.5198V48.93H64.8078L66.4398 47.442L65.7918 54.282L64.1598 52.818H67.5438C69.2078 52.818 70.5438 53.042 71.5518 53.49C72.5758 53.922 73.3198 54.53 73.7838 55.314C74.2638 56.082 74.5038 56.962 74.5038 57.954C74.5038 58.93 74.2638 59.826 73.7838 60.642C73.3038 61.458 72.5678 62.114 71.5758 62.61C70.5998 63.106 69.3598 63.354 67.8558 63.354ZM81.0554 60.114V49.314H83.6234V60.114H81.0554ZM76.8074 55.914V53.514H87.8714V55.914H76.8074Z" fill="white"/>
</g>
<path d="M49.6232 91.4557V77.4557H51.6232V89.7157H59.2032V91.4557H49.6232ZM67.7982 91.4557V89.2157L67.6982 88.7957V84.9757C67.6982 84.1624 67.4582 83.5357 66.9782 83.0957C66.5115 82.6424 65.8049 82.4157 64.8582 82.4157C64.2315 82.4157 63.6182 82.5224 63.0182 82.7357C62.4182 82.9357 61.9115 83.209 61.4982 83.5557L60.6982 82.1157C61.2449 81.6757 61.8982 81.3424 62.6582 81.1157C63.4315 80.8757 64.2382 80.7557 65.0782 80.7557C66.5315 80.7557 67.6515 81.109 68.4382 81.8157C69.2249 82.5224 69.6182 83.6024 69.6182 85.0557V91.4557H67.7982ZM64.3182 91.5757C63.5315 91.5757 62.8382 91.4424 62.2382 91.1757C61.6515 90.909 61.1982 90.5424 60.8782 90.0757C60.5582 89.5957 60.3982 89.0557 60.3982 88.4557C60.3982 87.8824 60.5315 87.3624 60.7982 86.8957C61.0782 86.429 61.5249 86.0557 62.1382 85.7757C62.7649 85.4957 63.6049 85.3557 64.6582 85.3557H68.0182V86.7357H64.7382C63.7782 86.7357 63.1315 86.8957 62.7982 87.2157C62.4649 87.5357 62.2982 87.9224 62.2982 88.3757C62.2982 88.8957 62.5049 89.3157 62.9182 89.6357C63.3315 89.9424 63.9049 90.0957 64.6382 90.0957C65.3582 90.0957 65.9849 89.9357 66.5182 89.6157C67.0649 89.2957 67.4582 88.829 67.6982 88.2157L68.0782 89.5357C67.8249 90.1624 67.3782 90.6624 66.7382 91.0357C66.0982 91.3957 65.2915 91.5757 64.3182 91.5757ZM78.7913 91.5757C77.8847 91.5757 77.0647 91.3757 76.3313 90.9757C75.6113 90.5624 75.038 89.9557 74.6113 89.1557C74.198 88.3557 73.9913 87.3557 73.9913 86.1557C73.9913 84.9557 74.2047 83.9557 74.6313 83.1557C75.0713 82.3557 75.6513 81.7557 76.3713 81.3557C77.1047 80.9557 77.9113 80.7557 78.7913 80.7557C79.8313 80.7557 80.7513 80.9824 81.5513 81.4357C82.3513 81.889 82.9847 82.5224 83.4513 83.3357C83.918 84.1357 84.1513 85.0757 84.1513 86.1557C84.1513 87.2357 83.918 88.1824 83.4513 88.9957C82.9847 89.809 82.3513 90.4424 81.5513 90.8957C80.7513 91.349 79.8313 91.5757 78.7913 91.5757ZM73.1713 91.4557V76.6157H75.0913V83.6757L74.8913 86.1357L75.0113 88.5957V91.4557H73.1713ZM78.6313 89.8957C79.3113 89.8957 79.918 89.7424 80.4513 89.4357C80.998 89.129 81.4247 88.6957 81.7313 88.1357C82.0513 87.5624 82.2113 86.9024 82.2113 86.1557C82.2113 85.3957 82.0513 84.7424 81.7313 84.1957C81.4247 83.6357 80.998 83.2024 80.4513 82.8957C79.918 82.589 79.3113 82.4357 78.6313 82.4357C77.9647 82.4357 77.358 82.589 76.8113 82.8957C76.278 83.2024 75.8513 83.6357 75.5313 84.1957C75.2247 84.7424 75.0713 85.3957 75.0713 86.1557C75.0713 86.9024 75.2247 87.5624 75.5313 88.1357C75.8513 88.6957 76.278 89.129 76.8113 89.4357C77.358 89.7424 77.9647 89.8957 78.6313 89.8957ZM89.8441 91.5757C88.9641 91.5757 88.1241 91.4557 87.3241 91.2157C86.5375 90.9757 85.9175 90.6824 85.4641 90.3357L86.2641 88.8157C86.7175 89.1224 87.2775 89.3824 87.9441 89.5957C88.6108 89.809 89.2908 89.9157 89.9841 89.9157C90.8775 89.9157 91.5175 89.789 91.9041 89.5357C92.3041 89.2824 92.5041 88.929 92.5041 88.4757C92.5041 88.1424 92.3841 87.8824 92.1441 87.6957C91.9041 87.509 91.5841 87.369 91.1841 87.2757C90.7975 87.1824 90.3641 87.1024 89.8841 87.0357C89.4041 86.9557 88.9241 86.8624 88.4441 86.7557C87.9641 86.6357 87.5241 86.4757 87.1241 86.2757C86.7241 86.0624 86.4041 85.7757 86.1641 85.4157C85.9241 85.0424 85.8041 84.549 85.8041 83.9357C85.8041 83.2957 85.9841 82.7357 86.3441 82.2557C86.7041 81.7757 87.2108 81.409 87.8641 81.1557C88.5308 80.889 89.3175 80.7557 90.2241 80.7557C90.9175 80.7557 91.6175 80.8424 92.3241 81.0157C93.0441 81.1757 93.6308 81.409 94.0841 81.7157L93.2641 83.2357C92.7841 82.9157 92.2841 82.6957 91.7641 82.5757C91.2441 82.4557 90.7241 82.3957 90.2041 82.3957C89.3641 82.3957 88.7375 82.5357 88.3241 82.8157C87.9108 83.0824 87.7041 83.429 87.7041 83.8557C87.7041 84.2157 87.8241 84.4957 88.0641 84.6957C88.3175 84.8824 88.6375 85.029 89.0241 85.1357C89.4241 85.2424 89.8641 85.3357 90.3441 85.4157C90.8241 85.4824 91.3041 85.5757 91.7841 85.6957C92.2641 85.8024 92.6975 85.9557 93.0841 86.1557C93.4841 86.3557 93.8041 86.6357 94.0441 86.9957C94.2975 87.3557 94.4241 87.8357 94.4241 88.4357C94.4241 89.0757 94.2375 89.629 93.8641 90.0957C93.4908 90.5624 92.9641 90.929 92.2841 91.1957C91.6041 91.449 90.7908 91.5757 89.8441 91.5757Z" fill="white"/>
<rect x="222.5" y="29.5" width="150" height="78" rx="15.5" fill="#138ED1" stroke="#138ED1"/>
<path d="M273.744 60V44.4L275.112 45.816H270.192V43.2H276.864V60H273.744ZM287.205 60.24C285.877 60.24 284.677 59.904 283.605 59.232C282.549 58.56 281.717 57.584 281.109 56.304C280.501 55.008 280.197 53.44 280.197 51.6C280.197 49.76 280.501 48.2 281.109 46.92C281.717 45.624 282.549 44.64 283.605 43.968C284.677 43.296 285.877 42.96 287.205 42.96C288.549 42.96 289.749 43.296 290.805 43.968C291.861 44.64 292.693 45.624 293.301 46.92C293.925 48.2 294.237 49.76 294.237 51.6C294.237 53.44 293.925 55.008 293.301 56.304C292.693 57.584 291.861 58.56 290.805 59.232C289.749 59.904 288.549 60.24 287.205 60.24ZM287.205 57.528C287.989 57.528 288.669 57.32 289.245 56.904C289.821 56.472 290.269 55.816 290.589 54.936C290.925 54.056 291.093 52.944 291.093 51.6C291.093 50.24 290.925 49.128 290.589 48.264C290.269 47.384 289.821 46.736 289.245 46.32C288.669 45.888 287.989 45.672 287.205 45.672C286.453 45.672 285.781 45.888 285.189 46.32C284.613 46.736 284.157 47.384 283.821 48.264C283.501 49.128 283.341 50.24 283.341 51.6C283.341 52.944 283.501 54.056 283.821 54.936C284.157 55.816 284.613 56.472 285.189 56.904C285.781 57.32 286.453 57.528 287.205 57.528ZM303.353 60.24C302.025 60.24 300.825 59.904 299.753 59.232C298.697 58.56 297.865 57.584 297.257 56.304C296.649 55.008 296.345 53.44 296.345 51.6C296.345 49.76 296.649 48.2 297.257 46.92C297.865 45.624 298.697 44.64 299.753 43.968C300.825 43.296 302.025 42.96 303.353 42.96C304.697 42.96 305.897 43.296 306.953 43.968C308.009 44.64 308.841 45.624 309.449 46.92C310.073 48.2 310.385 49.76 310.385 51.6C310.385 53.44 310.073 55.008 309.449 56.304C308.841 57.584 308.009 58.56 306.953 59.232C305.897 59.904 304.697 60.24 303.353 60.24ZM303.353 57.528C304.137 57.528 304.817 57.32 305.393 56.904C305.969 56.472 306.417 55.816 306.737 54.936C307.073 54.056 307.241 52.944 307.241 51.6C307.241 50.24 307.073 49.128 306.737 48.264C306.417 47.384 305.969 46.736 305.393 46.32C304.817 45.888 304.137 45.672 303.353 45.672C302.601 45.672 301.929 45.888 301.337 46.32C300.761 46.736 300.305 47.384 299.969 48.264C299.649 49.128 299.489 50.24 299.489 51.6C299.489 52.944 299.649 54.056 299.969 54.936C300.305 55.816 300.761 56.472 301.337 56.904C301.929 57.32 302.601 57.528 303.353 57.528ZM317.363 57V46.2H319.931V57H317.363ZM313.115 52.8V50.4H324.179V52.8H313.115Z" fill="white"/>
<path d="M267.703 81.112C266.956 81.112 266.265 80.9907 265.631 80.748C265.005 80.496 264.459 80.146 263.993 79.698C263.535 79.2407 263.176 78.7087 262.915 78.102C262.653 77.4953 262.523 76.828 262.523 76.1C262.523 75.372 262.653 74.7047 262.915 74.098C263.176 73.4913 263.54 72.964 264.007 72.516C264.473 72.0587 265.019 71.7087 265.645 71.466C266.279 71.214 266.97 71.088 267.717 71.088C268.473 71.088 269.168 71.2187 269.803 71.48C270.447 71.732 270.993 72.11 271.441 72.614L270.531 73.496C270.157 73.104 269.737 72.8147 269.271 72.628C268.804 72.432 268.305 72.334 267.773 72.334C267.222 72.334 266.709 72.4273 266.233 72.614C265.766 72.8007 265.36 73.062 265.015 73.398C264.669 73.734 264.399 74.1353 264.203 74.602C264.016 75.0593 263.923 75.5587 263.923 76.1C263.923 76.6413 264.016 77.1453 264.203 77.612C264.399 78.0693 264.669 78.466 265.015 78.802C265.36 79.138 265.766 79.3993 266.233 79.586C266.709 79.7727 267.222 79.866 267.773 79.866C268.305 79.866 268.804 79.7727 269.271 79.586C269.737 79.39 270.157 79.0913 270.531 78.69L271.441 79.572C270.993 80.076 270.447 80.4587 269.803 80.72C269.168 80.9813 268.468 81.112 267.703 81.112ZM276.105 81.084C275.359 81.084 274.696 80.9207 274.117 80.594C273.539 80.2673 273.081 79.8193 272.745 79.25C272.409 78.6713 272.241 78.018 272.241 77.29C272.241 76.5527 272.409 75.8993 272.745 75.33C273.081 74.7607 273.539 74.3173 274.117 74C274.696 73.6733 275.359 73.51 276.105 73.51C276.843 73.51 277.501 73.6733 278.079 74C278.667 74.3173 279.125 74.7607 279.451 75.33C279.787 75.89 279.955 76.5433 279.955 77.29C279.955 78.0273 279.787 78.6807 279.451 79.25C279.125 79.8193 278.667 80.2673 278.079 80.594C277.501 80.9207 276.843 81.084 276.105 81.084ZM276.105 79.908C276.581 79.908 277.006 79.8007 277.379 79.586C277.762 79.3713 278.061 79.068 278.275 78.676C278.49 78.2747 278.597 77.8127 278.597 77.29C278.597 76.758 278.49 76.3007 278.275 75.918C278.061 75.526 277.762 75.2227 277.379 75.008C277.006 74.7933 276.581 74.686 276.105 74.686C275.629 74.686 275.205 74.7933 274.831 75.008C274.458 75.2227 274.159 75.526 273.935 75.918C273.711 76.3007 273.599 76.758 273.599 77.29C273.599 77.8127 273.711 78.2747 273.935 78.676C274.159 79.068 274.458 79.3713 274.831 79.586C275.205 79.8007 275.629 79.908 276.105 79.908ZM281.814 81V70.612H283.158V81H281.814ZM285.724 81V70.612H287.068V81H285.724ZM292.938 81.084C292.145 81.084 291.445 80.9207 290.838 80.594C290.241 80.2673 289.774 79.8193 289.438 79.25C289.112 78.6807 288.948 78.0273 288.948 77.29C288.948 76.5527 289.107 75.8993 289.424 75.33C289.751 74.7607 290.194 74.3173 290.754 74C291.324 73.6733 291.963 73.51 292.672 73.51C293.391 73.51 294.026 73.6687 294.576 73.986C295.127 74.3033 295.556 74.7513 295.864 75.33C296.182 75.8993 296.34 76.5667 296.34 77.332C296.34 77.388 296.336 77.4533 296.326 77.528C296.326 77.6027 296.322 77.6727 296.312 77.738H289.998V76.772H295.612L295.066 77.108C295.076 76.632 294.978 76.2073 294.772 75.834C294.567 75.4607 294.282 75.1713 293.918 74.966C293.564 74.7513 293.148 74.644 292.672 74.644C292.206 74.644 291.79 74.7513 291.426 74.966C291.062 75.1713 290.778 75.4653 290.572 75.848C290.367 76.2213 290.264 76.6507 290.264 77.136V77.36C290.264 77.8547 290.376 78.298 290.6 78.69C290.834 79.0727 291.156 79.3713 291.566 79.586C291.977 79.8007 292.448 79.908 292.98 79.908C293.419 79.908 293.816 79.8333 294.17 79.684C294.534 79.5347 294.852 79.3107 295.122 79.012L295.864 79.88C295.528 80.272 295.108 80.5707 294.604 80.776C294.11 80.9813 293.554 81.084 292.938 81.084ZM301.441 81.084C300.685 81.084 300.008 80.9207 299.411 80.594C298.823 80.2673 298.361 79.8193 298.025 79.25C297.689 78.6807 297.521 78.0273 297.521 77.29C297.521 76.5527 297.689 75.8993 298.025 75.33C298.361 74.7607 298.823 74.3173 299.411 74C300.008 73.6733 300.685 73.51 301.441 73.51C302.113 73.51 302.71 73.6453 303.233 73.916C303.765 74.1773 304.175 74.5693 304.465 75.092L303.443 75.75C303.2 75.386 302.901 75.12 302.547 74.952C302.201 74.7747 301.828 74.686 301.427 74.686C300.941 74.686 300.507 74.7933 300.125 75.008C299.742 75.2227 299.439 75.526 299.215 75.918C298.991 76.3007 298.879 76.758 298.879 77.29C298.879 77.822 298.991 78.284 299.215 78.676C299.439 79.068 299.742 79.3713 300.125 79.586C300.507 79.8007 300.941 79.908 301.427 79.908C301.828 79.908 302.201 79.824 302.547 79.656C302.901 79.4787 303.2 79.208 303.443 78.844L304.465 79.488C304.175 80.0013 303.765 80.398 303.233 80.678C302.71 80.9487 302.113 81.084 301.441 81.084ZM308.848 81.084C308.102 81.084 307.523 80.8833 307.112 80.482C306.702 80.0807 306.496 79.5067 306.496 78.76V71.956H307.84V78.704C307.84 79.1053 307.938 79.4133 308.134 79.628C308.34 79.8427 308.629 79.95 309.002 79.95C309.422 79.95 309.772 79.8333 310.052 79.6L310.472 80.566C310.267 80.7433 310.02 80.874 309.73 80.958C309.45 81.042 309.156 81.084 308.848 81.084ZM305.236 74.686V73.58H309.968V74.686H305.236ZM312.097 81V73.58H313.441V81H312.097ZM312.769 72.152C312.508 72.152 312.289 72.068 312.111 71.9C311.943 71.732 311.859 71.5267 311.859 71.284C311.859 71.032 311.943 70.822 312.111 70.654C312.289 70.486 312.508 70.402 312.769 70.402C313.031 70.402 313.245 70.486 313.413 70.654C313.591 70.8127 313.679 71.0133 313.679 71.256C313.679 71.508 313.595 71.7227 313.427 71.9C313.259 72.068 313.04 72.152 312.769 72.152ZM319.185 81.084C318.439 81.084 317.776 80.9207 317.197 80.594C316.619 80.2673 316.161 79.8193 315.825 79.25C315.489 78.6713 315.321 78.018 315.321 77.29C315.321 76.5527 315.489 75.8993 315.825 75.33C316.161 74.7607 316.619 74.3173 317.197 74C317.776 73.6733 318.439 73.51 319.185 73.51C319.923 73.51 320.581 73.6733 321.159 74C321.747 74.3173 322.205 74.7607 322.531 75.33C322.867 75.89 323.035 76.5433 323.035 77.29C323.035 78.0273 322.867 78.6807 322.531 79.25C322.205 79.8193 321.747 80.2673 321.159 80.594C320.581 80.9207 319.923 81.084 319.185 81.084ZM319.185 79.908C319.661 79.908 320.086 79.8007 320.459 79.586C320.842 79.3713 321.141 79.068 321.355 78.676C321.57 78.2747 321.677 77.8127 321.677 77.29C321.677 76.758 321.57 76.3007 321.355 75.918C321.141 75.526 320.842 75.2227 320.459 75.008C320.086 74.7933 319.661 74.686 319.185 74.686C318.709 74.686 318.285 74.7933 317.911 75.008C317.538 75.2227 317.239 75.526 317.015 75.918C316.791 76.3007 316.679 76.758 316.679 77.29C316.679 77.8127 316.791 78.2747 317.015 78.676C317.239 79.068 317.538 79.3713 317.911 79.586C318.285 79.8007 318.709 79.908 319.185 79.908ZM328.856 73.51C329.463 73.51 329.995 73.6267 330.452 73.86C330.919 74.0933 331.283 74.448 331.544 74.924C331.805 75.4 331.936 76.002 331.936 76.73V81H330.592V76.884C330.592 76.1653 330.415 75.624 330.06 75.26C329.715 74.896 329.225 74.714 328.59 74.714C328.114 74.714 327.699 74.8073 327.344 74.994C326.989 75.1807 326.714 75.456 326.518 75.82C326.331 76.184 326.238 76.6367 326.238 77.178V81H324.894V73.58H326.182V75.582L325.972 75.05C326.215 74.5647 326.588 74.1867 327.092 73.916C327.596 73.6453 328.184 73.51 328.856 73.51ZM275.58 99.084C274.824 99.084 274.148 98.9207 273.55 98.594C272.962 98.2673 272.5 97.8193 272.164 97.25C271.828 96.6807 271.66 96.0273 271.66 95.29C271.66 94.5527 271.828 93.8993 272.164 93.33C272.5 92.7607 272.962 92.3173 273.55 92C274.148 91.6733 274.824 91.51 275.58 91.51C276.252 91.51 276.85 91.6453 277.372 91.916C277.904 92.1773 278.315 92.5693 278.604 93.092L277.582 93.75C277.34 93.386 277.041 93.12 276.686 92.952C276.341 92.7747 275.968 92.686 275.566 92.686C275.081 92.686 274.647 92.7933 274.264 93.008C273.882 93.2227 273.578 93.526 273.354 93.918C273.13 94.3007 273.018 94.758 273.018 95.29C273.018 95.822 273.13 96.284 273.354 96.676C273.578 97.068 273.882 97.3713 274.264 97.586C274.647 97.8007 275.081 97.908 275.566 97.908C275.968 97.908 276.341 97.824 276.686 97.656C277.041 97.4787 277.34 97.208 277.582 96.844L278.604 97.488C278.315 98.0013 277.904 98.398 277.372 98.678C276.85 98.9487 276.252 99.084 275.58 99.084ZM283.539 99.084C282.746 99.084 282.046 98.9207 281.439 98.594C280.842 98.2673 280.375 97.8193 280.039 97.25C279.712 96.6807 279.549 96.0273 279.549 95.29C279.549 94.5527 279.708 93.8993 280.025 93.33C280.352 92.7607 280.795 92.3173 281.355 92C281.924 91.6733 282.564 91.51 283.273 91.51C283.992 91.51 284.626 91.6687 285.177 91.986C285.728 92.3033 286.157 92.7513 286.465 93.33C286.782 93.8993 286.941 94.5667 286.941 95.332C286.941 95.388 286.936 95.4533 286.927 95.528C286.927 95.6027 286.922 95.6727 286.913 95.738H280.599V94.772H286.213L285.667 95.108C285.676 94.632 285.578 94.2073 285.373 93.834C285.168 93.4607 284.883 93.1713 284.519 92.966C284.164 92.7513 283.749 92.644 283.273 92.644C282.806 92.644 282.391 92.7513 282.027 92.966C281.663 93.1713 281.378 93.4653 281.173 93.848C280.968 94.2213 280.865 94.6507 280.865 95.136V95.36C280.865 95.8547 280.977 96.298 281.201 96.69C281.434 97.0727 281.756 97.3713 282.167 97.586C282.578 97.8007 283.049 97.908 283.581 97.908C284.02 97.908 284.416 97.8333 284.771 97.684C285.135 97.5347 285.452 97.3107 285.723 97.012L286.465 97.88C286.129 98.272 285.709 98.5707 285.205 98.776C284.71 98.9813 284.155 99.084 283.539 99.084ZM292.769 91.51C293.376 91.51 293.908 91.6267 294.365 91.86C294.832 92.0933 295.196 92.448 295.457 92.924C295.719 93.4 295.849 94.002 295.849 94.73V99H294.505V94.884C294.505 94.1653 294.328 93.624 293.973 93.26C293.628 92.896 293.138 92.714 292.503 92.714C292.027 92.714 291.612 92.8073 291.257 92.994C290.903 93.1807 290.627 93.456 290.431 93.82C290.245 94.184 290.151 94.6367 290.151 95.178V99H288.807V91.58H290.095V93.582L289.885 93.05C290.128 92.5647 290.501 92.1867 291.005 91.916C291.509 91.6453 292.097 91.51 292.769 91.51ZM300.885 99.084C300.138 99.084 299.559 98.8833 299.149 98.482C298.738 98.0807 298.533 97.5067 298.533 96.76V89.956H299.877V96.704C299.877 97.1053 299.975 97.4133 300.171 97.628C300.376 97.8427 300.665 97.95 301.039 97.95C301.459 97.95 301.809 97.8333 302.089 97.6L302.509 98.566C302.303 98.7433 302.056 98.874 301.767 98.958C301.487 99.042 301.193 99.084 300.885 99.084ZM297.273 92.686V91.58H302.005V92.686H297.273ZM307.191 99.084C306.398 99.084 305.698 98.9207 305.091 98.594C304.494 98.2673 304.027 97.8193 303.691 97.25C303.365 96.6807 303.201 96.0273 303.201 95.29C303.201 94.5527 303.36 93.8993 303.677 93.33C304.004 92.7607 304.447 92.3173 305.007 92C305.577 91.6733 306.216 91.51 306.925 91.51C307.644 91.51 308.279 91.6687 308.829 91.986C309.38 92.3033 309.809 92.7513 310.117 93.33C310.435 93.8993 310.593 94.5667 310.593 95.332C310.593 95.388 310.589 95.4533 310.579 95.528C310.579 95.6027 310.575 95.6727 310.565 95.738H304.251V94.772H309.865L309.319 95.108C309.329 94.632 309.231 94.2073 309.025 93.834C308.82 93.4607 308.535 93.1713 308.171 92.966C307.817 92.7513 307.401 92.644 306.925 92.644C306.459 92.644 306.043 92.7513 305.679 92.966C305.315 93.1713 305.031 93.4653 304.825 93.848C304.62 94.2213 304.517 94.6507 304.517 95.136V95.36C304.517 95.8547 304.629 96.298 304.853 96.69C305.087 97.0727 305.409 97.3713 305.819 97.586C306.23 97.8007 306.701 97.908 307.233 97.908C307.672 97.908 308.069 97.8333 308.423 97.684C308.787 97.5347 309.105 97.3107 309.375 97.012L310.117 97.88C309.781 98.272 309.361 98.5707 308.857 98.776C308.363 98.9813 307.807 99.084 307.191 99.084ZM312.46 99V91.58H313.748V93.596L313.622 93.092C313.827 92.5787 314.172 92.1867 314.658 91.916C315.143 91.6453 315.74 91.51 316.45 91.51V92.812C316.394 92.8027 316.338 92.798 316.282 92.798C316.235 92.798 316.188 92.798 316.142 92.798C315.423 92.798 314.854 93.0127 314.434 93.442C314.014 93.8713 313.804 94.492 313.804 95.304V99H312.46ZM320.316 99.084C319.7 99.084 319.112 99 318.552 98.832C318.001 98.664 317.567 98.4587 317.25 98.216L317.81 97.152C318.127 97.3667 318.519 97.5487 318.986 97.698C319.453 97.8473 319.929 97.922 320.414 97.922C321.039 97.922 321.487 97.8333 321.758 97.656C322.038 97.4787 322.178 97.2313 322.178 96.914C322.178 96.6807 322.094 96.4987 321.926 96.368C321.758 96.2373 321.534 96.1393 321.254 96.074C320.983 96.0087 320.68 95.9527 320.344 95.906C320.008 95.85 319.672 95.7847 319.336 95.71C319 95.626 318.692 95.514 318.412 95.374C318.132 95.2247 317.908 95.024 317.74 94.772C317.572 94.5107 317.488 94.1653 317.488 93.736C317.488 93.288 317.614 92.896 317.866 92.56C318.118 92.224 318.473 91.9673 318.93 91.79C319.397 91.6033 319.947 91.51 320.582 91.51C321.067 91.51 321.557 91.5707 322.052 91.692C322.556 91.804 322.967 91.9673 323.284 92.182L322.71 93.246C322.374 93.022 322.024 92.868 321.66 92.784C321.296 92.7 320.932 92.658 320.568 92.658C319.98 92.658 319.541 92.756 319.252 92.952C318.963 93.1387 318.818 93.3813 318.818 93.68C318.818 93.932 318.902 94.128 319.07 94.268C319.247 94.3987 319.471 94.5013 319.742 94.576C320.022 94.6507 320.33 94.716 320.666 94.772C321.002 94.8187 321.338 94.884 321.674 94.968C322.01 95.0427 322.313 95.15 322.584 95.29C322.864 95.43 323.088 95.626 323.256 95.878C323.433 96.13 323.522 96.466 323.522 96.886C323.522 97.334 323.391 97.7213 323.13 98.048C322.869 98.3747 322.5 98.6313 322.024 98.818C321.548 98.9953 320.979 99.084 320.316 99.084Z" fill="white"/>
<rect x="457.5" y="29.5" width="150" height="78" rx="15.5" fill="#138ED1" stroke="#138ED1"/>
<path d="M500.744 63V47.4L502.112 48.816H497.192V46.2H503.864V63H500.744ZM514.205 63.24C512.877 63.24 511.677 62.904 510.605 62.232C509.549 61.56 508.717 60.584 508.109 59.304C507.501 58.008 507.197 56.44 507.197 54.6C507.197 52.76 507.501 51.2 508.109 49.92C508.717 48.624 509.549 47.64 510.605 46.968C511.677 46.296 512.877 45.96 514.205 45.96C515.549 45.96 516.749 46.296 517.805 46.968C518.861 47.64 519.693 48.624 520.301 49.92C520.925 51.2 521.237 52.76 521.237 54.6C521.237 56.44 520.925 58.008 520.301 59.304C519.693 60.584 518.861 61.56 517.805 62.232C516.749 62.904 515.549 63.24 514.205 63.24ZM514.205 60.528C514.989 60.528 515.669 60.32 516.245 59.904C516.821 59.472 517.269 58.816 517.589 57.936C517.925 57.056 518.093 55.944 518.093 54.6C518.093 53.24 517.925 52.128 517.589 51.264C517.269 50.384 516.821 49.736 516.245 49.32C515.669 48.888 514.989 48.672 514.205 48.672C513.453 48.672 512.781 48.888 512.189 49.32C511.613 49.736 511.157 50.384 510.821 51.264C510.501 52.128 510.341 53.24 510.341 54.6C510.341 55.944 510.501 57.056 510.821 57.936C511.157 58.816 511.613 59.472 512.189 59.904C512.781 60.32 513.453 60.528 514.205 60.528ZM530.353 63.24C529.025 63.24 527.825 62.904 526.753 62.232C525.697 61.56 524.865 60.584 524.257 59.304C523.649 58.008 523.345 56.44 523.345 54.6C523.345 52.76 523.649 51.2 524.257 49.92C524.865 48.624 525.697 47.64 526.753 46.968C527.825 46.296 529.025 45.96 530.353 45.96C531.697 45.96 532.897 46.296 533.953 46.968C535.009 47.64 535.841 48.624 536.449 49.92C537.073 51.2 537.385 52.76 537.385 54.6C537.385 56.44 537.073 58.008 536.449 59.304C535.841 60.584 535.009 61.56 533.953 62.232C532.897 62.904 531.697 63.24 530.353 63.24ZM530.353 60.528C531.137 60.528 531.817 60.32 532.393 59.904C532.969 59.472 533.417 58.816 533.737 57.936C534.073 57.056 534.241 55.944 534.241 54.6C534.241 53.24 534.073 52.128 533.737 51.264C533.417 50.384 532.969 49.736 532.393 49.32C531.817 48.888 531.137 48.672 530.353 48.672C529.601 48.672 528.929 48.888 528.337 49.32C527.761 49.736 527.305 50.384 526.969 51.264C526.649 52.128 526.489 53.24 526.489 54.6C526.489 55.944 526.649 57.056 526.969 57.936C527.305 58.816 527.761 59.472 528.337 59.904C528.929 60.32 529.601 60.528 530.353 60.528ZM546.502 63.24C545.174 63.24 543.974 62.904 542.902 62.232C541.846 61.56 541.014 60.584 540.406 59.304C539.798 58.008 539.494 56.44 539.494 54.6C539.494 52.76 539.798 51.2 540.406 49.92C541.014 48.624 541.846 47.64 542.902 46.968C543.974 46.296 545.174 45.96 546.502 45.96C547.846 45.96 549.046 46.296 550.102 46.968C551.158 47.64 551.99 48.624 552.598 49.92C553.222 51.2 553.534 52.76 553.534 54.6C553.534 56.44 553.222 58.008 552.598 59.304C551.99 60.584 551.158 61.56 550.102 62.232C549.046 62.904 547.846 63.24 546.502 63.24ZM546.502 60.528C547.286 60.528 547.966 60.32 548.542 59.904C549.118 59.472 549.566 58.816 549.886 57.936C550.222 57.056 550.39 55.944 550.39 54.6C550.39 53.24 550.222 52.128 549.886 51.264C549.566 50.384 549.118 49.736 548.542 49.32C547.966 48.888 547.286 48.672 546.502 48.672C545.75 48.672 545.078 48.888 544.486 49.32C543.91 49.736 543.454 50.384 543.118 51.264C542.798 52.128 542.638 53.24 542.638 54.6C542.638 55.944 542.798 57.056 543.118 57.936C543.454 58.816 543.91 59.472 544.486 59.904C545.078 60.32 545.75 60.528 546.502 60.528ZM560.511 60V49.2H563.079V60H560.511ZM556.263 55.8V53.4H567.327V55.8H556.263Z" fill="white"/>
<path d="M473.68 90V78.8H474.992L480.016 87.264H479.312L484.272 78.8H485.584L485.6 90H484.064L484.048 81.216H484.416L480 88.64H479.264L474.816 81.216H475.216V90H473.68ZM492.369 90.096C491.516 90.096 490.759 89.9093 490.097 89.536C489.436 89.1627 488.913 88.6507 488.529 88C488.145 87.3387 487.953 86.592 487.953 85.76C487.953 84.9173 488.145 84.1707 488.529 83.52C488.913 82.8693 489.436 82.3627 490.097 82C490.759 81.6267 491.516 81.44 492.369 81.44C493.212 81.44 493.964 81.6267 494.625 82C495.297 82.3627 495.82 82.8693 496.193 83.52C496.577 84.16 496.769 84.9067 496.769 85.76C496.769 86.6027 496.577 87.3493 496.193 88C495.82 88.6507 495.297 89.1627 494.625 89.536C493.964 89.9093 493.212 90.096 492.369 90.096ZM492.369 88.752C492.913 88.752 493.399 88.6293 493.825 88.384C494.263 88.1387 494.604 87.792 494.849 87.344C495.095 86.8853 495.217 86.3573 495.217 85.76C495.217 85.152 495.095 84.6293 494.849 84.192C494.604 83.744 494.263 83.3973 493.825 83.152C493.399 82.9067 492.913 82.784 492.369 82.784C491.825 82.784 491.34 82.9067 490.913 83.152C490.487 83.3973 490.145 83.744 489.889 84.192C489.633 84.6293 489.505 85.152 489.505 85.76C489.505 86.3573 489.633 86.8853 489.889 87.344C490.145 87.792 490.487 88.1387 490.913 88.384C491.34 88.6293 491.825 88.752 492.369 88.752ZM503.422 81.44C504.115 81.44 504.723 81.5733 505.246 81.84C505.779 82.1067 506.195 82.512 506.494 83.056C506.792 83.6 506.942 84.288 506.942 85.12V90H505.406V85.296C505.406 84.4747 505.203 83.856 504.798 83.44C504.403 83.024 503.843 82.816 503.118 82.816C502.574 82.816 502.099 82.9227 501.694 83.136C501.288 83.3493 500.974 83.664 500.75 84.08C500.536 84.496 500.43 85.0133 500.43 85.632V90H498.894V81.52H500.366V83.808L500.126 83.2C500.403 82.6453 500.83 82.2133 501.406 81.904C501.982 81.5947 502.654 81.44 503.422 81.44ZM512.696 90.096C511.843 90.096 511.181 89.8667 510.712 89.408C510.243 88.9493 510.008 88.2933 510.008 87.44V79.664H511.544V87.376C511.544 87.8347 511.656 88.1867 511.88 88.432C512.115 88.6773 512.445 88.8 512.872 88.8C513.352 88.8 513.752 88.6667 514.072 88.4L514.552 89.504C514.317 89.7067 514.035 89.856 513.704 89.952C513.384 90.048 513.048 90.096 512.696 90.096ZM508.568 82.784V81.52H513.976V82.784H508.568ZM520.937 81.44C521.63 81.44 522.238 81.5733 522.761 81.84C523.294 82.1067 523.71 82.512 524.009 83.056C524.308 83.6 524.457 84.288 524.457 85.12V90H522.921V85.296C522.921 84.4747 522.718 83.856 522.313 83.44C521.918 83.024 521.358 82.816 520.633 82.816C520.089 82.816 519.614 82.9227 519.209 83.136C518.804 83.3493 518.489 83.664 518.265 84.08C518.052 84.496 517.945 85.0133 517.945 85.632V90H516.409V78.128H517.945V83.808L517.641 83.2C517.918 82.6453 518.345 82.2133 518.921 81.904C519.497 81.5947 520.169 81.44 520.937 81.44ZM527.3 90V78.128H528.836V90H527.3ZM532.137 93.2C531.731 93.2 531.337 93.1307 530.953 92.992C530.569 92.864 530.238 92.672 529.96 92.416L530.617 91.264C530.83 91.4667 531.065 91.6213 531.321 91.728C531.577 91.8347 531.849 91.888 532.137 91.888C532.51 91.888 532.819 91.792 533.065 91.6C533.31 91.408 533.539 91.0667 533.753 90.576L534.281 89.408L534.441 89.216L537.769 81.52H539.273L535.161 90.848C534.915 91.4453 534.638 91.9147 534.329 92.256C534.03 92.5973 533.699 92.8373 533.337 92.976C532.974 93.1253 532.574 93.2 532.137 93.2ZM534.153 90.272L530.28 81.52H531.881L535.177 89.072L534.153 90.272ZM547.915 90.096C547.062 90.096 546.4 89.8667 545.931 89.408C545.462 88.9493 545.227 88.2933 545.227 87.44V79.664H546.763V87.376C546.763 87.8347 546.875 88.1867 547.099 88.432C547.334 88.6773 547.664 88.8 548.091 88.8C548.571 88.8 548.971 88.6667 549.291 88.4L549.771 89.504C549.536 89.7067 549.254 89.856 548.923 89.952C548.603 90.048 548.267 90.096 547.915 90.096ZM543.787 82.784V81.52H549.195V82.784H543.787ZM555.123 90.096C554.216 90.096 553.416 89.9093 552.723 89.536C552.04 89.1627 551.507 88.6507 551.123 88C550.749 87.3493 550.563 86.6027 550.563 85.76C550.563 84.9173 550.744 84.1707 551.107 83.52C551.48 82.8693 551.987 82.3627 552.627 82C553.277 81.6267 554.008 81.44 554.819 81.44C555.64 81.44 556.365 81.6213 556.995 81.984C557.624 82.3467 558.115 82.8587 558.467 83.52C558.829 84.1707 559.011 84.9333 559.011 85.808C559.011 85.872 559.005 85.9467 558.995 86.032C558.995 86.1173 558.989 86.1973 558.979 86.272H551.763V85.168H558.179L557.555 85.552C557.565 85.008 557.453 84.5227 557.219 84.096C556.984 83.6693 556.659 83.3387 556.243 83.104C555.837 82.8587 555.363 82.736 554.819 82.736C554.285 82.736 553.811 82.8587 553.395 83.104C552.979 83.3387 552.653 83.6747 552.419 84.112C552.184 84.5387 552.067 85.0293 552.067 85.584V85.84C552.067 86.4053 552.195 86.912 552.451 87.36C552.717 87.7973 553.085 88.1387 553.555 88.384C554.024 88.6293 554.563 88.752 555.171 88.752C555.672 88.752 556.125 88.6667 556.531 88.496C556.947 88.3253 557.309 88.0693 557.619 87.728L558.467 88.72C558.083 89.168 557.603 89.5093 557.027 89.744C556.461 89.9787 555.827 90.096 555.123 90.096ZM563.576 90.096C562.872 90.096 562.2 90 561.56 89.808C560.93 89.616 560.434 89.3813 560.072 89.104L560.712 87.888C561.074 88.1333 561.522 88.3413 562.056 88.512C562.589 88.6827 563.133 88.768 563.688 88.768C564.402 88.768 564.914 88.6667 565.224 88.464C565.544 88.2613 565.704 87.9787 565.704 87.616C565.704 87.3493 565.608 87.1413 565.416 86.992C565.224 86.8427 564.968 86.7307 564.648 86.656C564.338 86.5813 563.992 86.5173 563.608 86.464C563.224 86.4 562.84 86.3253 562.456 86.24C562.072 86.144 561.72 86.016 561.4 85.856C561.08 85.6853 560.824 85.456 560.632 85.168C560.44 84.8693 560.344 84.4747 560.344 83.984C560.344 83.472 560.488 83.024 560.776 82.64C561.064 82.256 561.469 81.9627 561.992 81.76C562.525 81.5467 563.154 81.44 563.88 81.44C564.434 81.44 564.994 81.5093 565.56 81.648C566.136 81.776 566.605 81.9627 566.968 82.208L566.312 83.424C565.928 83.168 565.528 82.992 565.112 82.896C564.696 82.8 564.28 82.752 563.864 82.752C563.192 82.752 562.69 82.864 562.36 83.088C562.029 83.3013 561.864 83.5787 561.864 83.92C561.864 84.208 561.96 84.432 562.152 84.592C562.354 84.7413 562.61 84.8587 562.92 84.944C563.24 85.0293 563.592 85.104 563.976 85.168C564.36 85.2213 564.744 85.296 565.128 85.392C565.512 85.4773 565.858 85.6 566.168 85.76C566.488 85.92 566.744 86.144 566.936 86.432C567.138 86.72 567.24 87.104 567.24 87.584C567.24 88.096 567.09 88.5387 566.792 88.912C566.493 89.2853 566.072 89.5787 565.528 89.792C564.984 89.9947 564.333 90.096 563.576 90.096ZM572.071 90.096C571.218 90.096 570.556 89.8667 570.087 89.408C569.618 88.9493 569.383 88.2933 569.383 87.44V79.664H570.919V87.376C570.919 87.8347 571.031 88.1867 571.255 88.432C571.49 88.6773 571.82 88.8 572.247 88.8C572.727 88.8 573.127 88.6667 573.447 88.4L573.927 89.504C573.692 89.7067 573.41 89.856 573.079 89.952C572.759 90.048 572.423 90.096 572.071 90.096ZM567.943 82.784V81.52H573.351V82.784H567.943ZM578.216 90.096C577.512 90.096 576.84 90 576.2 89.808C575.571 89.616 575.075 89.3813 574.712 89.104L575.352 87.888C575.715 88.1333 576.163 88.3413 576.696 88.512C577.229 88.6827 577.773 88.768 578.328 88.768C579.043 88.768 579.555 88.6667 579.864 88.464C580.184 88.2613 580.344 87.9787 580.344 87.616C580.344 87.3493 580.248 87.1413 580.056 86.992C579.864 86.8427 579.608 86.7307 579.288 86.656C578.979 86.5813 578.632 86.5173 578.248 86.464C577.864 86.4 577.48 86.3253 577.096 86.24C576.712 86.144 576.36 86.016 576.04 85.856C575.72 85.6853 575.464 85.456 575.272 85.168C575.08 84.8693 574.984 84.4747 574.984 83.984C574.984 83.472 575.128 83.024 575.416 82.64C575.704 82.256 576.109 81.9627 576.632 81.76C577.165 81.5467 577.795 81.44 578.52 81.44C579.075 81.44 579.635 81.5093 580.2 81.648C580.776 81.776 581.245 81.9627 581.608 82.208L580.952 83.424C580.568 83.168 580.168 82.992 579.752 82.896C579.336 82.8 578.92 82.752 578.504 82.752C577.832 82.752 577.331 82.864 577 83.088C576.669 83.3013 576.504 83.5787 576.504 83.92C576.504 84.208 576.6 84.432 576.792 84.592C576.995 84.7413 577.251 84.8587 577.56 84.944C577.88 85.0293 578.232 85.104 578.616 85.168C579 85.2213 579.384 85.296 579.768 85.392C580.152 85.4773 580.499 85.6 580.808 85.76C581.128 85.92 581.384 86.144 581.576 86.432C581.779 86.72 581.88 87.104 581.88 87.584C581.88 88.096 581.731 88.5387 581.432 88.912C581.133 89.2853 580.712 89.5787 580.168 89.792C579.624 89.9947 578.973 90.096 578.216 90.096Z" fill="white"/>
<rect x="694.5" y="29.5" width="150" height="78" rx="15.5" fill="#138ED1" stroke="#138ED1"/>
<path d="M739.84 63V60.912L746.512 54.576C747.072 54.048 747.488 53.584 747.76 53.184C748.032 52.784 748.208 52.416 748.288 52.08C748.384 51.728 748.432 51.4 748.432 51.096C748.432 50.328 748.168 49.736 747.64 49.32C747.112 48.888 746.336 48.672 745.312 48.672C744.496 48.672 743.752 48.816 743.08 49.104C742.424 49.392 741.856 49.832 741.376 50.424L739.192 48.744C739.848 47.864 740.728 47.184 741.832 46.704C742.952 46.208 744.2 45.96 745.576 45.96C746.792 45.96 747.848 46.16 748.744 46.56C749.656 46.944 750.352 47.496 750.832 48.216C751.328 48.936 751.576 49.792 751.576 50.784C751.576 51.328 751.504 51.872 751.36 52.416C751.216 52.944 750.944 53.504 750.544 54.096C750.144 54.688 749.56 55.352 748.792 56.088L743.056 61.536L742.408 60.36H752.224V63H739.84ZM753.809 63V60.912L760.481 54.576C761.041 54.048 761.457 53.584 761.729 53.184C762.001 52.784 762.177 52.416 762.257 52.08C762.353 51.728 762.401 51.4 762.401 51.096C762.401 50.328 762.137 49.736 761.609 49.32C761.081 48.888 760.305 48.672 759.281 48.672C758.465 48.672 757.721 48.816 757.049 49.104C756.393 49.392 755.825 49.832 755.345 50.424L753.161 48.744C753.817 47.864 754.697 47.184 755.801 46.704C756.921 46.208 758.169 45.96 759.545 45.96C760.761 45.96 761.817 46.16 762.713 46.56C763.625 46.944 764.321 47.496 764.801 48.216C765.297 48.936 765.545 49.792 765.545 50.784C765.545 51.328 765.473 51.872 765.329 52.416C765.185 52.944 764.913 53.504 764.513 54.096C764.113 54.688 763.529 55.352 762.761 56.088L757.025 61.536L756.377 60.36H766.193V63H753.809ZM775.002 63.24C773.674 63.24 772.474 62.904 771.402 62.232C770.346 61.56 769.514 60.584 768.906 59.304C768.298 58.008 767.994 56.44 767.994 54.6C767.994 52.76 768.298 51.2 768.906 49.92C769.514 48.624 770.346 47.64 771.402 46.968C772.474 46.296 773.674 45.96 775.002 45.96C776.346 45.96 777.546 46.296 778.602 46.968C779.658 47.64 780.49 48.624 781.098 49.92C781.722 51.2 782.034 52.76 782.034 54.6C782.034 56.44 781.722 58.008 781.098 59.304C780.49 60.584 779.658 61.56 778.602 62.232C777.546 62.904 776.346 63.24 775.002 63.24ZM775.002 60.528C775.786 60.528 776.466 60.32 777.042 59.904C777.618 59.472 778.066 58.816 778.386 57.936C778.722 57.056 778.89 55.944 778.89 54.6C778.89 53.24 778.722 52.128 778.386 51.264C778.066 50.384 777.618 49.736 777.042 49.32C776.466 48.888 775.786 48.672 775.002 48.672C774.25 48.672 773.578 48.888 772.986 49.32C772.41 49.736 771.954 50.384 771.618 51.264C771.298 52.128 771.138 53.24 771.138 54.6C771.138 55.944 771.298 57.056 771.618 57.936C771.954 58.816 772.41 59.472 772.986 59.904C773.578 60.32 774.25 60.528 775.002 60.528ZM791.15 63.24C789.822 63.24 788.622 62.904 787.55 62.232C786.494 61.56 785.662 60.584 785.054 59.304C784.446 58.008 784.142 56.44 784.142 54.6C784.142 52.76 784.446 51.2 785.054 49.92C785.662 48.624 786.494 47.64 787.55 46.968C788.622 46.296 789.822 45.96 791.15 45.96C792.494 45.96 793.694 46.296 794.75 46.968C795.806 47.64 796.638 48.624 797.246 49.92C797.87 51.2 798.182 52.76 798.182 54.6C798.182 56.44 797.87 58.008 797.246 59.304C796.638 60.584 795.806 61.56 794.75 62.232C793.694 62.904 792.494 63.24 791.15 63.24ZM791.15 60.528C791.934 60.528 792.614 60.32 793.19 59.904C793.766 59.472 794.214 58.816 794.534 57.936C794.87 57.056 795.038 55.944 795.038 54.6C795.038 53.24 794.87 52.128 794.534 51.264C794.214 50.384 793.766 49.736 793.19 49.32C792.614 48.888 791.934 48.672 791.15 48.672C790.398 48.672 789.726 48.888 789.134 49.32C788.558 49.736 788.102 50.384 787.766 51.264C787.446 52.128 787.286 53.24 787.286 54.6C787.286 55.944 787.446 57.056 787.766 57.936C788.102 58.816 788.558 59.472 789.134 59.904C789.726 60.32 790.398 60.528 791.15 60.528Z" fill="white"/>
<path d="M720.88 91V78.74H716.08V77H727.66V78.74H722.86V91H720.88ZM733.185 91.12C732.051 91.12 731.051 90.8867 730.185 90.42C729.331 89.9533 728.665 89.3133 728.185 88.5C727.718 87.6867 727.485 86.7533 727.485 85.7C727.485 84.6467 727.711 83.7133 728.165 82.9C728.631 82.0867 729.265 81.4533 730.065 81C730.878 80.5333 731.791 80.3 732.805 80.3C733.831 80.3 734.738 80.5267 735.525 80.98C736.311 81.4333 736.925 82.0733 737.365 82.9C737.818 83.7133 738.045 84.6667 738.045 85.76C738.045 85.84 738.038 85.9333 738.025 86.04C738.025 86.1467 738.018 86.2467 738.005 86.34H728.985V84.96H737.005L736.225 85.44C736.238 84.76 736.098 84.1533 735.805 83.62C735.511 83.0867 735.105 82.6733 734.585 82.38C734.078 82.0733 733.485 81.92 732.805 81.92C732.138 81.92 731.545 82.0733 731.025 82.38C730.505 82.6733 730.098 83.0933 729.805 83.64C729.511 84.1733 729.365 84.7867 729.365 85.48V85.8C729.365 86.5067 729.525 87.14 729.845 87.7C730.178 88.2467 730.638 88.6733 731.225 88.98C731.811 89.2867 732.485 89.44 733.245 89.44C733.871 89.44 734.438 89.3333 734.945 89.12C735.465 88.9067 735.918 88.5867 736.305 88.16L737.365 89.4C736.885 89.96 736.285 90.3867 735.565 90.68C734.858 90.9733 734.065 91.12 733.185 91.12ZM743.751 91.12C742.871 91.12 742.031 91 741.231 90.76C740.444 90.52 739.824 90.2267 739.371 89.88L740.171 88.36C740.624 88.6667 741.184 88.9267 741.851 89.14C742.517 89.3533 743.197 89.46 743.891 89.46C744.784 89.46 745.424 89.3333 745.811 89.08C746.211 88.8267 746.411 88.4733 746.411 88.02C746.411 87.6867 746.291 87.4267 746.051 87.24C745.811 87.0533 745.491 86.9133 745.091 86.82C744.704 86.7267 744.271 86.6467 743.791 86.58C743.311 86.5 742.831 86.4067 742.351 86.3C741.871 86.18 741.431 86.02 741.031 85.82C740.631 85.6067 740.311 85.32 740.071 84.96C739.831 84.5867 739.711 84.0933 739.711 83.48C739.711 82.84 739.891 82.28 740.251 81.8C740.611 81.32 741.117 80.9533 741.771 80.7C742.437 80.4333 743.224 80.3 744.131 80.3C744.824 80.3 745.524 80.3867 746.231 80.56C746.951 80.72 747.537 80.9533 747.991 81.26L747.171 82.78C746.691 82.46 746.191 82.24 745.671 82.12C745.151 82 744.631 81.94 744.111 81.94C743.271 81.94 742.644 82.08 742.231 82.36C741.817 82.6267 741.611 82.9733 741.611 83.4C741.611 83.76 741.731 84.04 741.971 84.24C742.224 84.4267 742.544 84.5733 742.931 84.68C743.331 84.7867 743.771 84.88 744.251 84.96C744.731 85.0267 745.211 85.12 745.691 85.24C746.171 85.3467 746.604 85.5 746.991 85.7C747.391 85.9 747.711 86.18 747.951 86.54C748.204 86.9 748.331 87.38 748.331 87.98C748.331 88.62 748.144 89.1733 747.771 89.64C747.397 90.1067 746.871 90.4733 746.191 90.74C745.511 90.9933 744.697 91.12 743.751 91.12ZM754.37 91.12C753.303 91.12 752.477 90.8333 751.89 90.26C751.303 89.6867 751.01 88.8667 751.01 87.8V78.08H752.93V87.72C752.93 88.2933 753.07 88.7333 753.35 89.04C753.643 89.3467 754.057 89.5 754.59 89.5C755.19 89.5 755.69 89.3333 756.09 89L756.69 90.38C756.397 90.6333 756.043 90.82 755.63 90.94C755.23 91.06 754.81 91.12 754.37 91.12ZM749.21 81.98V80.4H755.97V81.98H749.21ZM777.643 80.3C778.496 80.3 779.249 80.4667 779.903 80.8C780.556 81.1333 781.063 81.64 781.423 82.32C781.796 83 781.983 83.86 781.983 84.9V91H780.063V85.12C780.063 84.0933 779.823 83.32 779.343 82.8C778.863 82.28 778.189 82.02 777.323 82.02C776.683 82.02 776.123 82.1533 775.643 82.42C775.163 82.6867 774.789 83.08 774.523 83.6C774.269 84.12 774.143 84.7667 774.143 85.54V91H772.223V85.12C772.223 84.0933 771.983 83.32 771.503 82.8C771.036 82.28 770.363 82.02 769.483 82.02C768.856 82.02 768.303 82.1533 767.823 82.42C767.343 82.6867 766.969 83.08 766.703 83.6C766.436 84.12 766.303 84.7667 766.303 85.54V91H764.383V80.4H766.223V83.22L765.923 82.5C766.256 81.8067 766.769 81.2667 767.463 80.88C768.156 80.4933 768.963 80.3 769.883 80.3C770.896 80.3 771.769 80.5533 772.503 81.06C773.236 81.5533 773.716 82.3067 773.943 83.32L773.163 83C773.483 82.1867 774.043 81.5333 774.843 81.04C775.643 80.5467 776.576 80.3 777.643 80.3ZM790.235 91.12C789.102 91.12 788.102 90.8867 787.235 90.42C786.382 89.9533 785.715 89.3133 785.235 88.5C784.769 87.6867 784.535 86.7533 784.535 85.7C784.535 84.6467 784.762 83.7133 785.215 82.9C785.682 82.0867 786.315 81.4533 787.115 81C787.929 80.5333 788.842 80.3 789.855 80.3C790.882 80.3 791.789 80.5267 792.575 80.98C793.362 81.4333 793.975 82.0733 794.415 82.9C794.869 83.7133 795.095 84.6667 795.095 85.76C795.095 85.84 795.089 85.9333 795.075 86.04C795.075 86.1467 795.069 86.2467 795.055 86.34H786.035V84.96H794.055L793.275 85.44C793.289 84.76 793.149 84.1533 792.855 83.62C792.562 83.0867 792.155 82.6733 791.635 82.38C791.129 82.0733 790.535 81.92 789.855 81.92C789.189 81.92 788.595 82.0733 788.075 82.38C787.555 82.6733 787.149 83.0933 786.855 83.64C786.562 84.1733 786.415 84.7867 786.415 85.48V85.8C786.415 86.5067 786.575 87.14 786.895 87.7C787.229 88.2467 787.689 88.6733 788.275 88.98C788.862 89.2867 789.535 89.44 790.295 89.44C790.922 89.44 791.489 89.3333 791.995 89.12C792.515 88.9067 792.969 88.5867 793.355 88.16L794.415 89.4C793.935 89.96 793.335 90.3867 792.615 90.68C791.909 90.9733 791.115 91.12 790.235 91.12ZM803.421 80.3C804.288 80.3 805.048 80.4667 805.701 80.8C806.368 81.1333 806.888 81.64 807.261 82.32C807.635 83 807.821 83.86 807.821 84.9V91H805.901V85.12C805.901 84.0933 805.648 83.32 805.141 82.8C804.648 82.28 803.948 82.02 803.041 82.02C802.361 82.02 801.768 82.1533 801.261 82.42C800.755 82.6867 800.361 83.08 800.081 83.6C799.815 84.12 799.681 84.7667 799.681 85.54V91H797.761V80.4H799.601V83.26L799.301 82.5C799.648 81.8067 800.181 81.2667 800.901 80.88C801.621 80.4933 802.461 80.3 803.421 80.3ZM815.835 91.12C814.928 91.12 814.128 90.9533 813.435 90.62C812.755 90.2867 812.221 89.78 811.835 89.1C811.461 88.4067 811.275 87.54 811.275 86.5V80.4H813.195V86.28C813.195 87.32 813.441 88.1 813.935 88.62C814.441 89.14 815.148 89.4 816.055 89.4C816.721 89.4 817.301 89.2667 817.795 89C818.288 88.72 818.668 88.32 818.935 87.8C819.201 87.2667 819.335 86.6267 819.335 85.88V80.4H821.255V91H819.435V88.14L819.735 88.9C819.388 89.6067 818.868 90.1533 818.175 90.54C817.481 90.9267 816.701 91.12 815.835 91.12Z" fill="white"/>
<rect x="928.5" y="29.5" width="150" height="78" rx="15.5" fill="#138ED1" stroke="#138ED1"/>
<path d="M995.624 64.24C994.44 64.24 993.28 64.072 992.144 63.736C991.024 63.384 990.08 62.904 989.312 62.296L990.632 59.872C991.24 60.368 991.976 60.768 992.84 61.072C993.72 61.376 994.632 61.528 995.576 61.528C996.68 61.528 997.544 61.296 998.168 60.832C998.808 60.368 999.128 59.744 999.128 58.96C999.128 58.432 998.992 57.968 998.72 57.568C998.464 57.168 998 56.864 997.328 56.656C996.672 56.448 995.768 56.344 994.616 56.344H990.56L991.424 47.2H1001.29V49.816H992.576L994.208 48.328L993.56 55.168L991.928 53.704H995.312C996.976 53.704 998.312 53.928 999.32 54.376C1000.34 54.808 1001.09 55.416 1001.55 56.2C1002.03 56.968 1002.27 57.848 1002.27 58.84C1002.27 59.816 1002.03 60.712 1001.55 61.528C1001.07 62.344 1000.34 63 999.344 63.496C998.368 63.992 997.128 64.24 995.624 64.24ZM1008.82 61V50.2H1011.39V61H1008.82ZM1004.58 56.8V54.4H1015.64V56.8H1004.58Z" fill="white"/>
<path d="M944.54 88.128C943.686 88.128 942.897 87.9893 942.172 87.712C941.457 87.424 940.833 87.024 940.3 86.512C939.777 85.9893 939.366 85.3813 939.068 84.688C938.769 83.9947 938.62 83.232 938.62 82.4C938.62 81.568 938.769 80.8053 939.068 80.112C939.366 79.4187 939.782 78.816 940.316 78.304C940.849 77.7813 941.473 77.3813 942.188 77.104C942.913 76.816 943.702 76.672 944.556 76.672C945.42 76.672 946.214 76.8213 946.94 77.12C947.676 77.408 948.3 77.84 948.812 78.416L947.772 79.424C947.345 78.976 946.865 78.6453 946.332 78.432C945.798 78.208 945.228 78.096 944.62 78.096C943.99 78.096 943.404 78.2027 942.86 78.416C942.326 78.6293 941.862 78.928 941.468 79.312C941.073 79.696 940.764 80.1547 940.54 80.688C940.326 81.2107 940.22 81.7813 940.22 82.4C940.22 83.0187 940.326 83.5947 940.54 84.128C940.764 84.6507 941.073 85.104 941.468 85.488C941.862 85.872 942.326 86.1707 942.86 86.384C943.404 86.5973 943.99 86.704 944.62 86.704C945.228 86.704 945.798 86.5973 946.332 86.384C946.865 86.16 947.345 85.8187 947.772 85.36L948.812 86.368C948.3 86.944 947.676 87.3813 946.94 87.68C946.214 87.9787 945.414 88.128 944.54 88.128ZM950.87 88V79.52H952.406V88H950.87ZM951.638 77.888C951.339 77.888 951.089 77.792 950.886 77.6C950.694 77.408 950.598 77.1733 950.598 76.896C950.598 76.608 950.694 76.368 950.886 76.176C951.089 75.984 951.339 75.888 951.638 75.888C951.937 75.888 952.182 75.984 952.374 76.176C952.577 76.3573 952.678 76.5867 952.678 76.864C952.678 77.152 952.582 77.3973 952.39 77.6C952.198 77.792 951.947 77.888 951.638 77.888ZM958.251 88.096C957.397 88.096 956.736 87.8667 956.267 87.408C955.797 86.9493 955.563 86.2933 955.563 85.44V77.664H957.099V85.376C957.099 85.8347 957.211 86.1867 957.435 86.432C957.669 86.6773 958 86.8 958.427 86.8C958.907 86.8 959.307 86.6667 959.627 86.4L960.107 87.504C959.872 87.7067 959.589 87.856 959.259 87.952C958.939 88.048 958.603 88.096 958.251 88.096ZM954.123 80.784V79.52H959.531V80.784H954.123ZM961.964 88V79.52H963.5V88H961.964ZM962.732 77.888C962.433 77.888 962.182 77.792 961.98 77.6C961.788 77.408 961.692 77.1733 961.692 76.896C961.692 76.608 961.788 76.368 961.98 76.176C962.182 75.984 962.433 75.888 962.732 75.888C963.03 75.888 963.276 75.984 963.468 76.176C963.67 76.3573 963.772 76.5867 963.772 76.864C963.772 77.152 963.676 77.3973 963.484 77.6C963.292 77.792 963.041 77.888 962.732 77.888ZM970.209 88.096C969.302 88.096 968.502 87.9093 967.809 87.536C967.126 87.1627 966.593 86.6507 966.209 86C965.835 85.3493 965.649 84.6027 965.649 83.76C965.649 82.9173 965.83 82.1707 966.193 81.52C966.566 80.8693 967.073 80.3627 967.713 80C968.363 79.6267 969.094 79.44 969.905 79.44C970.726 79.44 971.451 79.6213 972.081 79.984C972.71 80.3467 973.201 80.8587 973.553 81.52C973.915 82.1707 974.097 82.9333 974.097 83.808C974.097 83.872 974.091 83.9467 974.081 84.032C974.081 84.1173 974.075 84.1973 974.065 84.272H966.849V83.168H973.265L972.641 83.552C972.651 83.008 972.539 82.5227 972.305 82.096C972.07 81.6693 971.745 81.3387 971.329 81.104C970.923 80.8587 970.449 80.736 969.905 80.736C969.371 80.736 968.897 80.8587 968.481 81.104C968.065 81.3387 967.739 81.6747 967.505 82.112C967.27 82.5387 967.153 83.0293 967.153 83.584V83.84C967.153 84.4053 967.281 84.912 967.537 85.36C967.803 85.7973 968.171 86.1387 968.641 86.384C969.11 86.6293 969.649 86.752 970.257 86.752C970.758 86.752 971.211 86.6667 971.617 86.496C972.033 86.3253 972.395 86.0693 972.705 85.728L973.553 86.72C973.169 87.168 972.689 87.5093 972.113 87.744C971.547 87.9787 970.913 88.096 970.209 88.096ZM978.661 88.096C977.957 88.096 977.285 88 976.645 87.808C976.016 87.616 975.52 87.3813 975.157 87.104L975.797 85.888C976.16 86.1333 976.608 86.3413 977.141 86.512C977.675 86.6827 978.219 86.768 978.773 86.768C979.488 86.768 980 86.6667 980.309 86.464C980.629 86.2613 980.789 85.9787 980.789 85.616C980.789 85.3493 980.693 85.1413 980.501 84.992C980.309 84.8427 980.053 84.7307 979.733 84.656C979.424 84.5813 979.077 84.5173 978.693 84.464C978.309 84.4 977.925 84.3253 977.541 84.24C977.157 84.144 976.805 84.016 976.485 83.856C976.165 83.6853 975.909 83.456 975.717 83.168C975.525 82.8693 975.429 82.4747 975.429 81.984C975.429 81.472 975.573 81.024 975.861 80.64C976.149 80.256 976.555 79.9627 977.077 79.76C977.611 79.5467 978.24 79.44 978.965 79.44C979.52 79.44 980.08 79.5093 980.645 79.648C981.221 79.776 981.691 79.9627 982.053 80.208L981.397 81.424C981.013 81.168 980.613 80.992 980.197 80.896C979.781 80.8 979.365 80.752 978.949 80.752C978.277 80.752 977.776 80.864 977.445 81.088C977.115 81.3013 976.949 81.5787 976.949 81.92C976.949 82.208 977.045 82.432 977.237 82.592C977.44 82.7413 977.696 82.8587 978.005 82.944C978.325 83.0293 978.677 83.104 979.061 83.168C979.445 83.2213 979.829 83.296 980.213 83.392C980.597 83.4773 980.944 83.6 981.253 83.76C981.573 83.92 981.829 84.144 982.021 84.432C982.224 84.72 982.325 85.104 982.325 85.584C982.325 86.096 982.176 86.5387 981.877 86.912C981.579 87.2853 981.157 87.5787 980.613 87.792C980.069 87.9947 979.419 88.096 978.661 88.096ZM993.038 88.096C992.334 88.096 991.689 87.936 991.102 87.616C990.526 87.2853 990.062 86.8 989.71 86.16C989.369 85.52 989.198 84.72 989.198 83.76C989.198 82.8 989.363 82 989.694 81.36C990.035 80.72 990.494 80.24 991.07 79.92C991.657 79.6 992.313 79.44 993.038 79.44C993.87 79.44 994.606 79.6213 995.246 79.984C995.886 80.3467 996.393 80.8533 996.766 81.504C997.139 82.144 997.326 82.896 997.326 83.76C997.326 84.624 997.139 85.3813 996.766 86.032C996.393 86.6827 995.886 87.1893 995.246 87.552C994.606 87.9147 993.87 88.096 993.038 88.096ZM988.542 91.104V79.52H990.014V81.808L989.918 83.776L990.078 85.744V91.104H988.542ZM992.91 86.752C993.454 86.752 993.939 86.6293 994.366 86.384C994.803 86.1387 995.145 85.792 995.39 85.344C995.646 84.8853 995.774 84.3573 995.774 83.76C995.774 83.152 995.646 82.6293 995.39 82.192C995.145 81.744 994.803 81.3973 994.366 81.152C993.939 80.9067 993.454 80.784 992.91 80.784C992.377 80.784 991.891 80.9067 991.454 81.152C991.027 81.3973 990.686 81.744 990.43 82.192C990.185 82.6293 990.062 83.152 990.062 83.76C990.062 84.3573 990.185 84.8853 990.43 85.344C990.686 85.792 991.027 86.1387 991.454 86.384C991.891 86.6293 992.377 86.752 992.91 86.752ZM999.448 88V79.52H1000.92V81.824L1000.78 81.248C1001.01 80.6613 1001.41 80.2133 1001.96 79.904C1002.51 79.5947 1003.2 79.44 1004.01 79.44V80.928C1003.94 80.9173 1003.88 80.912 1003.82 80.912C1003.76 80.912 1003.71 80.912 1003.66 80.912C1002.83 80.912 1002.18 81.1573 1001.7 81.648C1001.22 82.1387 1000.98 82.848 1000.98 83.776V88H999.448ZM1009.6 88.096C1008.69 88.096 1007.89 87.9093 1007.2 87.536C1006.52 87.1627 1005.98 86.6507 1005.6 86C1005.23 85.3493 1005.04 84.6027 1005.04 83.76C1005.04 82.9173 1005.22 82.1707 1005.58 81.52C1005.96 80.8693 1006.46 80.3627 1007.1 80C1007.75 79.6267 1008.48 79.44 1009.3 79.44C1010.12 79.44 1010.84 79.6213 1011.47 79.984C1012.1 80.3467 1012.59 80.8587 1012.94 81.52C1013.31 82.1707 1013.49 82.9333 1013.49 83.808C1013.49 83.872 1013.48 83.9467 1013.47 84.032C1013.47 84.1173 1013.47 84.1973 1013.46 84.272H1006.24V83.168H1012.66L1012.03 83.552C1012.04 83.008 1011.93 82.5227 1011.7 82.096C1011.46 81.6693 1011.14 81.3387 1010.72 81.104C1010.31 80.8587 1009.84 80.736 1009.3 80.736C1008.76 80.736 1008.29 80.8587 1007.87 81.104C1007.46 81.3387 1007.13 81.6747 1006.9 82.112C1006.66 82.5387 1006.54 83.0293 1006.54 83.584V83.84C1006.54 84.4053 1006.67 84.912 1006.93 85.36C1007.19 85.7973 1007.56 86.1387 1008.03 86.384C1008.5 86.6293 1009.04 86.752 1009.65 86.752C1010.15 86.752 1010.6 86.6667 1011.01 86.496C1011.42 86.3253 1011.79 86.0693 1012.1 85.728L1012.94 86.72C1012.56 87.168 1012.08 87.5093 1011.5 87.744C1010.94 87.9787 1010.3 88.096 1009.6 88.096ZM1018.05 88.096C1017.35 88.096 1016.68 88 1016.04 87.808C1015.41 87.616 1014.91 87.3813 1014.55 87.104L1015.19 85.888C1015.55 86.1333 1016 86.3413 1016.53 86.512C1017.07 86.6827 1017.61 86.768 1018.16 86.768C1018.88 86.768 1019.39 86.6667 1019.7 86.464C1020.02 86.2613 1020.18 85.9787 1020.18 85.616C1020.18 85.3493 1020.08 85.1413 1019.89 84.992C1019.7 84.8427 1019.44 84.7307 1019.12 84.656C1018.81 84.5813 1018.47 84.5173 1018.08 84.464C1017.7 84.4 1017.32 84.3253 1016.93 84.24C1016.55 84.144 1016.2 84.016 1015.88 83.856C1015.56 83.6853 1015.3 83.456 1015.11 83.168C1014.92 82.8693 1014.82 82.4747 1014.82 81.984C1014.82 81.472 1014.96 81.024 1015.25 80.64C1015.54 80.256 1015.95 79.9627 1016.47 79.76C1017 79.5467 1017.63 79.44 1018.36 79.44C1018.91 79.44 1019.47 79.5093 1020.04 79.648C1020.61 79.776 1021.08 79.9627 1021.44 80.208L1020.79 81.424C1020.4 81.168 1020 80.992 1019.59 80.896C1019.17 80.8 1018.76 80.752 1018.34 80.752C1017.67 80.752 1017.17 80.864 1016.84 81.088C1016.51 81.3013 1016.34 81.5787 1016.34 81.92C1016.34 82.208 1016.44 82.432 1016.63 82.592C1016.83 82.7413 1017.09 82.8587 1017.4 82.944C1017.72 83.0293 1018.07 83.104 1018.45 83.168C1018.84 83.2213 1019.22 83.296 1019.6 83.392C1019.99 83.4773 1020.33 83.6 1020.64 83.76C1020.96 83.92 1021.22 84.144 1021.41 84.432C1021.61 84.72 1021.72 85.104 1021.72 85.584C1021.72 86.096 1021.57 86.5387 1021.27 86.912C1020.97 87.2853 1020.55 87.5787 1020 87.792C1019.46 87.9947 1018.81 88.096 1018.05 88.096ZM1027.41 88.096C1026.51 88.096 1025.71 87.9093 1025.01 87.536C1024.33 87.1627 1023.8 86.6507 1023.41 86C1023.04 85.3493 1022.85 84.6027 1022.85 83.76C1022.85 82.9173 1023.03 82.1707 1023.4 81.52C1023.77 80.8693 1024.28 80.3627 1024.92 80C1025.57 79.6267 1026.3 79.44 1027.11 79.44C1027.93 79.44 1028.65 79.6213 1029.28 79.984C1029.91 80.3467 1030.4 80.8587 1030.76 81.52C1031.12 82.1707 1031.3 82.9333 1031.3 83.808C1031.3 83.872 1031.29 83.9467 1031.28 84.032C1031.28 84.1173 1031.28 84.1973 1031.27 84.272H1024.05V83.168H1030.47L1029.84 83.552C1029.85 83.008 1029.74 82.5227 1029.51 82.096C1029.27 81.6693 1028.95 81.3387 1028.53 81.104C1028.13 80.8587 1027.65 80.736 1027.11 80.736C1026.57 80.736 1026.1 80.8587 1025.68 81.104C1025.27 81.3387 1024.94 81.6747 1024.71 82.112C1024.47 82.5387 1024.36 83.0293 1024.36 83.584V83.84C1024.36 84.4053 1024.48 84.912 1024.74 85.36C1025.01 85.7973 1025.37 86.1387 1025.84 86.384C1026.31 86.6293 1026.85 86.752 1027.46 86.752C1027.96 86.752 1028.41 86.6667 1028.82 86.496C1029.24 86.3253 1029.6 86.0693 1029.91 85.728L1030.76 86.72C1030.37 87.168 1029.89 87.5093 1029.32 87.744C1028.75 87.9787 1028.12 88.096 1027.41 88.096ZM1037.96 79.44C1038.65 79.44 1039.26 79.5733 1039.78 79.84C1040.32 80.1067 1040.73 80.512 1041.03 81.056C1041.33 81.6 1041.48 82.288 1041.48 83.12V88H1039.94V83.296C1039.94 82.4747 1039.74 81.856 1039.34 81.44C1038.94 81.024 1038.38 80.816 1037.66 80.816C1037.11 80.816 1036.64 80.9227 1036.23 81.136C1035.83 81.3493 1035.51 81.664 1035.29 82.08C1035.08 82.496 1034.97 83.0133 1034.97 83.632V88H1033.43V79.52H1034.9V81.808L1034.66 81.2C1034.94 80.6453 1035.37 80.2133 1035.94 79.904C1036.52 79.5947 1037.19 79.44 1037.96 79.44ZM1047.24 88.096C1046.38 88.096 1045.72 87.8667 1045.25 87.408C1044.78 86.9493 1044.55 86.2933 1044.55 85.44V77.664H1046.08V85.376C1046.08 85.8347 1046.2 86.1867 1046.42 86.432C1046.65 86.6773 1046.98 86.8 1047.41 86.8C1047.89 86.8 1048.29 86.6667 1048.61 86.4L1049.09 87.504C1048.86 87.7067 1048.57 87.856 1048.24 87.952C1047.92 88.048 1047.59 88.096 1047.24 88.096ZM1043.11 80.784V79.52H1048.52V80.784H1043.11ZM1055.25 88V79.52H1056.78V88H1055.25ZM1056.01 77.888C1055.71 77.888 1055.46 77.792 1055.26 77.6C1055.07 77.408 1054.97 77.1733 1054.97 76.896C1054.97 76.608 1055.07 76.368 1055.26 76.176C1055.46 75.984 1055.71 75.888 1056.01 75.888C1056.31 75.888 1056.56 75.984 1056.75 76.176C1056.95 76.3573 1057.05 76.5867 1057.05 76.864C1057.05 77.152 1056.96 77.3973 1056.77 77.6C1056.57 77.792 1056.32 77.888 1056.01 77.888ZM1064.24 79.44C1064.94 79.44 1065.54 79.5733 1066.07 79.84C1066.6 80.1067 1067.02 80.512 1067.31 81.056C1067.61 81.6 1067.76 82.288 1067.76 83.12V88H1066.23V83.296C1066.23 82.4747 1066.02 81.856 1065.62 81.44C1065.22 81.024 1064.66 80.816 1063.94 80.816C1063.39 80.816 1062.92 80.9227 1062.51 81.136C1062.11 81.3493 1061.79 81.664 1061.57 82.08C1061.36 82.496 1061.25 83.0133 1061.25 83.632V88H1059.71V79.52H1061.19V81.808L1060.95 81.2C1061.22 80.6453 1061.65 80.2133 1062.23 79.904C1062.8 79.5947 1063.47 79.44 1064.24 79.44Z" fill="white"/>
<defs>
<filter id="filter0_d_1_226" x="11.5438" y="0.313965" width="126.328" height="117.04" filterUnits="userSpaceOnUse" color-interpolation-filters="sRGB">
<feFlood flood-opacity="0" result="BackgroundImageFix"/>
<feColorMatrix in="SourceAlpha" type="matrix" values="0 0 0 0 0 0 0 0 0 0 0 0 0 0 0 0 0 0 127 0" result="hardAlpha"/>
<feOffset dy="4"/>
<feGaussianBlur stdDeviation="25"/>
<feComposite in2="hardAlpha" operator="out"/>
<feColorMatrix type="matrix" values="0 0 0 0 0.46 0 0 0 0 0.810576 0 0 0 0 1 0 0 0 1 0"/>
<feBlend mode="normal" in2="BackgroundImageFix" result="effect1_dropShadow_1_226"/>
<feBlend mode="normal" in="SourceGraphic" in2="effect1_dropShadow_1_226" result="shape"/>
</filter>
</defs>
</svg>
